<?xml version="1.0" standalone="no"?>
<!DOCTYPE svg PUBLIC "-//W3C//DTD SVG 20010904//EN"
 "http://www.w3.org/TR/2001/REC-SVG-20010904/DTD/svg10.dtd">
<svg version="1.0" xmlns="http://www.w3.org/2000/svg"
 width="512.000000pt" height="512.000000pt" viewBox="0 0 512.000000 512.000000"
 preserveAspectRatio="xMidYMid meet">
<metadata>
Created by potrace 1.14, written by Peter Selinger 2001-2017
</metadata>
<g transform="translate(0.000000,512.000000) scale(0.100000,-0.100000)"
fill="#000000" stroke="none">
<path d="M2473 4722 c-254 -288 -490 -698 -596 -1037 -128 -408 -135 -786 -21
-1185 87 -307 251 -633 462 -918 42 -57 83 -112 90 -121 11 -17 8 -17 -50 -9
-92 12 -131 18 -158 23 -14 3 -41 8 -60 11 -19 4 -42 8 -50 9 -49 9 -170 42
-270 72 -698 213 -1143 629 -1383 1293 -65 180 -133 450 -152 605 -3 28 -8 64
-10 80 -2 17 -6 54 -10 84 l-5 53 82 -6 c46 -4 94 -8 108 -11 14 -2 57 -9 95
-15 332 -52 677 -174 954 -338 106 -63 134 -64 158 -4 13 33 13 35 -20 65 -50
47 -229 142 -391 209 -77 32 -150 62 -162 67 -19 8 -20 14 -12 97 13 142 46
350 76 471 l27 113 103 -50 c128 -61 265 -141 406 -237 88 -60 114 -73 135
-68 49 12 67 69 33 103 -82 82 -453 299 -636 372 -83 33 -118 34 -135 1 -32
-60 -111 -417 -126 -576 -4 -38 -9 -81 -10 -95 -2 -14 -4 -39 -4 -56 l-1 -31
-107 28 c-59 16 -123 31 -142 34 -71 11 -96 16 -111 20 -24 7 -149 24 -230 30
-41 4 -91 8 -110 10 -52 6 -99 -12 -106 -42 -4 -13 -4 -66 -1 -116 29 -441
170 -913 377 -1260 71 -120 187 -278 257 -350 26 -27 42 -51 37 -56 -5 -4 -31
-16 -59 -26 -163 -59 -399 -199 -587 -349 -90 -70 -107 -104 -76 -148 27 -39
192 -198 268 -259 247 -197 548 -332 820 -367 116 -15 437 -7 492 13 7 2 24 6
38 9 69 11 202 54 302 96 37 16 69 26 71 22 3 -4 22 -38 43 -77 38 -71 202
-320 241 -365 11 -14 55 -67 98 -118 76 -91 104 -110 144 -97 47 15 283 323
408 533 36 61 71 112 76 112 6 0 49 -15 97 -34 191 -76 380 -111 593 -109 419
4 836 198 1183 550 96 99 107 119 88 159 -15 29 -178 160 -290 232 -97 63
-233 136 -330 177 -49 21 -91 39 -93 41 -2 2 28 37 67 79 191 207 359 505 466
827 25 73 47 145 50 158 3 14 16 72 30 130 13 58 27 119 29 135 3 17 10 59 16
95 6 36 13 88 16 115 3 28 7 68 10 90 8 72 8 140 1 161 -15 46 -67 49 -326 18
-83 -10 -304 -53 -392 -77 -49 -13 -89 -21 -89 -18 -2 10 -6 41 -13 116 -4 39
-9 81 -11 95 -2 14 -7 43 -10 65 -13 93 -18 115 -41 219 -33 150 -63 248 -82
269 -30 34 -77 21 -277 -80 -176 -89 -450 -260 -482 -301 -32 -39 -2 -102 47
-102 13 0 62 26 109 59 47 32 129 84 181 116 99 60 329 179 335 173 13 -13 78
-320 90 -426 8 -64 18 -186 19 -220 1 -33 1 -33 -104 -73 -122 -46 -341 -154
-420 -207 -58 -39 -72 -70 -50 -111 18 -35 54 -36 107 -5 95 57 109 64 166 94
281 148 717 273 1033 296 l84 6 -5 -58 c-3 -33 -8 -70 -10 -84 -2 -14 -7 -50
-10 -80 -4 -30 -9 -64 -11 -75 -2 -11 -6 -31 -9 -45 -91 -473 -279 -889 -532
-1175 -260 -293 -625 -504 -1093 -630 -194 -53 -496 -103 -483 -81 4 6 32 45
64 86 239 316 420 676 504 1005 38 149 39 153 56 280 18 142 16 381 -6 508
-21 123 -29 161 -46 227 -104 397 -331 814 -628 1158 -64 73 -76 82 -106 82
-30 0 -42 -9 -102 -78z m222 -228 c192 -252 352 -549 446 -826 24 -72 65 -227
73 -278 3 -19 8 -44 10 -56 9 -46 19 -184 20 -274 0 -93 -11 -256 -18 -269 -2
-3 -7 -28 -10 -56 -24 -177 -125 -463 -243 -685 -99 -187 -278 -453 -371 -552
-31 -34 -30 -35 -131 96 -364 470 -564 987 -565 1456 0 126 11 245 33 351 6
30 13 63 15 75 21 111 112 357 188 509 116 233 216 388 377 589 l55 68 33 -38
c19 -22 58 -71 88 -110z m-1701 -2653 c263 -209 642 -378 1041 -465 98 -21
301 -55 332 -56 19 -1 -212 -143 -312 -193 -142 -71 -312 -131 -430 -151 -181
-31 -364 -25 -565 18 -186 41 -466 189 -658 349 -80 67 -172 152 -172 159 0
15 258 198 279 198 5 0 11 4 13 8 9 22 355 181 397 182 7 0 41 -22 75 -49z
m3371 -10 c82 -36 202 -99 289 -153 91 -57 236 -165 236 -176 0 -19 -223 -204
-337 -280 -479 -320 -976 -352 -1488 -94 -112 56 -312 179 -304 187 2 2 29 6
59 10 219 26 497 93 710 172 209 77 488 231 635 350 l49 40 51 -17 c27 -10 73
-28 100 -39z m-1727 -590 c73 -55 235 -160 294 -190 27 -14 27 -14 11 -45 -55
-108 -246 -385 -339 -494 l-29 -34 -71 89 c-39 48 -94 120 -122 160 -67 94
-193 305 -189 317 2 5 45 34 95 65 51 30 131 85 180 122 48 37 88 68 90 68 1
1 37 -25 80 -58z"/>
</g>
</svg>
